<svg width="1592" height="217" viewBox="0 0 1592 217" fill="none" xmlns="http://www.w3.org/2000/svg">
<path fill-rule="evenodd" clip-rule="evenodd" d="M390.149 38.6852C387.573 40.8008 382.135 45.9387 381.849 55.3078H330.901C330.901 40.1964 336.339 28.4094 344.926 19.3426C361.24 2.41781 384.997 0 411.043 0C431.365 0 463.708 2.11559 480.023 20.2493C492.044 33.5473 492.331 49.5654 492.331 62.259V130.563C492.331 142.891 493.977 147.272 494.498 148.659L494.503 148.671L494.557 148.817C494.583 148.888 494.604 148.948 494.62 148.999C495.479 150.51 497.769 154.136 502.635 155.043V159.274H447.68L444.531 144.163H443.386C437.376 152.323 430.22 157.159 420.775 160.483C409.326 164.412 397.018 165.017 386.142 165.017C371.831 165.017 353.226 164.11 340.919 155.345C333.191 149.603 324.031 138.723 324.031 118.776C324.031 107.291 326.894 96.713 334.908 88.5529C348.051 75.2529 370.887 73.0169 386.123 71.525C386.813 71.4574 387.488 71.3914 388.145 71.3259L411.043 69.2103L412.653 69.0662C425.206 67.9455 433.542 67.2013 437.662 62.5612C439.952 60.1434 441.097 56.2144 441.097 52.5877C441.097 47.7521 439.379 41.7075 431.938 37.4763C426.499 34.454 418.485 33.2451 411.902 33.2451C408.467 33.2451 397.018 33.5473 390.149 38.6852ZM431.079 123.007C437.09 116.66 441.383 107.291 441.383 90.9707V88.5529C435.658 93.6908 429.648 94.5974 415.337 96.1086L404.746 97.3175C396.446 98.2242 389.29 99.4331 384.425 102.758C381.849 104.571 377.555 108.5 377.555 115.753C377.555 121.194 380.131 126.029 383.566 128.749C389.004 133.283 396.732 133.585 402.743 133.585C411.902 133.585 422.206 132.376 431.079 123.007Z" fill="white"/>
<path fill-rule="evenodd" clip-rule="evenodd" d="M134.737 5.74249V215.187H185.112V142.954C189.692 149.301 196.848 155.648 204.576 158.972C209.155 161.088 218.314 164.11 238.064 164.11C256.096 164.11 277.562 162.599 295.308 144.465C313.34 125.727 316.489 100.34 316.489 81.2996C316.489 62.8636 313.627 38.3832 295.308 20.2495C278.135 3.02244 256.954 0.906832 238.636 0.906832C228.332 0.906832 214.593 1.81352 202.572 8.16033C195.989 11.7871 189.12 17.5294 183.681 25.0851H182.823V5.74249H134.737ZM224.039 34.7564C238.064 34.7564 247.509 39.8943 253.806 47.45C260.389 55.3079 264.396 67.3971 264.396 82.2062C264.396 87.6464 263.824 105.478 253.806 117.869C245.792 127.843 236.346 130.261 224.897 130.261C209.728 130.261 200.568 124.216 195.13 118.474C187.116 109.709 183.681 95.5043 183.681 83.1129C183.681 69.5127 187.975 55.6102 195.989 46.5433C204.576 36.872 214.88 34.7564 224.039 34.7564Z" fill="white"/>
<path d="M50.3752 41.4054H124.793V5.74241H0V159.274H50.3752V41.4054Z" fill="white"/>
<path d="M563.888 96.7131H632.868V159.274H683.243V5.74241H632.868V61.0502H563.888V5.74241H513.513V159.274H563.888V96.7131Z" fill="white"/>
<path fill-rule="evenodd" clip-rule="evenodd" d="M693.189 199.168L690.327 125.425H710.649C717.518 115.451 725.819 100.038 730.685 79.4861C734.978 61.6546 735.264 44.7299 735.264 30.2229V5.74241H875.513V125.425H899.842L896.98 199.168H858.34V159.274H731.829V199.168H693.189ZM826.855 125.425V39.592H777.052V49.8677C777.052 63.468 775.621 77.975 773.045 88.8552C770.469 100.642 765.317 113.336 758.162 125.425H826.855Z" fill="white"/>
<path d="M999.215 55.9123L964.582 5.74241H905.048L966.3 80.3928L902.758 159.274H958.572L994.063 108.802L1030.41 159.274H1090.23L1026.98 79.7883L1087.94 5.74241H1032.42L999.215 55.9123Z" fill="white"/>
<path fill-rule="evenodd" clip-rule="evenodd" d="M1155.08 38.6852C1152.5 40.8008 1147.06 45.9387 1146.78 55.3078H1095.83C1095.83 40.1964 1101.27 28.4094 1109.86 19.3426C1126.17 2.41781 1149.93 0 1175.97 0C1196.29 0 1228.64 2.11559 1244.95 20.2493C1256.97 33.5473 1257.26 49.5654 1257.26 62.259V130.563C1257.26 142.89 1258.91 147.272 1259.43 148.659L1259.43 148.666C1259.48 148.806 1259.52 148.915 1259.55 148.999C1260.41 150.51 1262.7 154.136 1267.56 155.043V159.274H1212.61L1209.46 144.163H1208.32C1202.31 152.323 1195.15 157.159 1185.7 160.483C1174.26 164.412 1161.95 165.017 1151.07 165.017C1136.76 165.017 1118.16 164.11 1105.85 155.345C1098.12 149.603 1088.96 138.723 1088.96 118.776C1088.96 107.291 1091.82 96.713 1099.84 88.5529C1112.98 75.2529 1135.82 73.0169 1151.05 71.525L1153.07 71.3259L1175.97 69.2103L1177.58 69.0662C1190.14 67.9455 1198.47 67.2013 1202.59 62.5612C1204.88 60.1434 1206.03 56.2144 1206.03 52.5877C1206.03 47.7521 1204.31 41.7075 1196.87 37.4763C1191.43 34.454 1183.41 33.2451 1176.83 33.2451C1173.4 33.2451 1161.95 33.5473 1155.08 38.6852ZM1196.01 123.007C1202.02 116.66 1206.31 107.291 1206.31 90.9707V88.5529C1200.59 93.6908 1194.58 94.5974 1180.27 96.1086L1169.68 97.3175C1161.38 98.2242 1154.22 99.4331 1149.35 102.758C1146.78 104.571 1142.48 108.5 1142.48 115.753C1142.48 121.194 1145.06 126.029 1148.5 128.749C1153.93 133.283 1161.66 133.585 1167.67 133.585C1176.83 133.585 1187.14 132.376 1196.01 123.007Z" fill="white"/>
<path d="M1270.88 212.769C1281.47 216.396 1288.92 217 1299.79 217C1314.1 217 1328.7 215.791 1341.58 202.795C1351.05 193.382 1357 178.53 1363.11 163.253L1363.62 161.994L1425.44 5.74241H1378.22L1344.44 108.198L1305.8 5.74241H1255.14L1316.96 149.905L1314.1 158.972C1312.1 165.017 1307.81 173.479 1303.23 177.408C1298.93 181.035 1292.35 182.546 1286.05 182.546C1284.05 182.546 1278.04 182.244 1270.88 179.826V212.769Z" fill="white"/>
<path d="M1565.1 12.9958C1587.71 26.8983 1591.14 46.8454 1591.43 60.1434H1543.06C1542.77 55.61 1541.62 46.5432 1532.18 40.1964C1525.6 35.9652 1516.44 34.454 1508.42 34.454C1497.26 34.454 1486.38 37.1741 1478.37 46.8454C1467.78 59.539 1467.49 78.5793 1467.49 84.0195C1467.49 101.246 1472.64 113.336 1479.23 120.287C1487.81 129.354 1499.26 130.563 1508.71 130.563C1515.29 130.563 1525.31 129.958 1532.47 124.518C1538.48 119.985 1543.06 111.824 1543.34 101.549H1592V102.455C1592 122.705 1583.7 136.607 1576.54 144.465C1559.08 163.505 1533.04 165.017 1506.71 165.017C1483.24 165.017 1454.33 163.505 1435.15 143.256C1427.99 135.7 1415.4 118.473 1415.4 84.9261C1415.4 54.4011 1425.42 35.9652 1434.86 25.3872C1454.33 3.62672 1483.24 0 1505.27 0C1539.33 0 1556.79 7.85793 1565.1 12.9958Z" fill="white"/>
</svg>
